<?xml version="1.0" encoding="utf-8"?>
<!-- Generator: Adobe Illustrator 15.0.0, SVG Export Plug-In . SVG Version: 6.00 Build 0)  -->
<!DOCTYPE svg PUBLIC "-//W3C//DTD SVG 1.1//EN" "http://www.w3.org/Graphics/SVG/1.1/DTD/svg11.dtd">
<svg version="1.1" xmlns="http://www.w3.org/2000/svg" xmlns:xlink="http://www.w3.org/1999/xlink" x="0px" y="0px" width="597px"
	 height="484px" viewBox="0 0 597 484" enable-background="new 0 0 597 484" xml:space="preserve">
<g id="Layer_1">
	<path fill="none" stroke="#41C5E7" stroke-width="3" stroke-linecap="round" stroke-linejoin="round" stroke-miterlimit="10" d="
		M501.923,365.5h63c7.452,0,13.5,12.096,13.5,27s-6.048,27-13.5,27h-63c-7.452,0-13.5-12.096-13.5-27S494.471,365.5,501.923,365.5"
		/>
	<path fill="none" stroke="#666666" stroke-width="3" stroke-linecap="round" stroke-linejoin="round" stroke-miterlimit="10" d="
		M13.06,49.4c-13.091-2.9-7.871-27.316,13.013-23.15c1.938-8.121,26.222-6.803,26.063,0c15.228-8.701,34.687,8.648,21.635,17.35
		c15.662,4.219-0.198,26.947-13.052,23.15c-1.029,6.328-24.008,8.543-26.024,0C21.683,75.874-5.449,61.846,13.06,49.4z"/>
	<path fill="none" stroke="#41C5E7" stroke-width="3" stroke-linecap="round" stroke-linejoin="round" stroke-miterlimit="10" d="
		M483,35.4c0,3.257,24.303,5.9,54.25,5.9c29.945,0,54.25-2.643,54.25-5.9 M483,82.6V35.4c0-3.257,24.303-5.9,54.25-5.9
		c29.945,0,54.25,2.643,54.25,5.9v47.2c0,3.257-24.305,5.9-54.25,5.9C507.306,88.5,483,85.857,483,82.6"/>
	<path fill="none" stroke="#41C5E7" stroke-width="3" stroke-linecap="round" stroke-linejoin="round" stroke-miterlimit="10" d="
		M312,134.5h63c7.452,0,13.5,12.096,13.5,27s-6.048,27-13.5,27h-63c-7.452,0-13.5-12.096-13.5-27S304.548,134.5,312,134.5"/>
	<path fill="none" stroke="#41C5E7" stroke-width="3" stroke-linecap="round" stroke-linejoin="round" stroke-miterlimit="10" d="
		M312,226.5h63c7.452,0,13.5,12.096,13.5,27s-6.048,27-13.5,27h-63c-7.452,0-13.5-12.096-13.5-27S304.548,226.5,312,226.5"/>
	<path fill="none" stroke="#41C5E7" stroke-width="3" stroke-linecap="round" stroke-linejoin="round" stroke-miterlimit="10" d="
		M483,137.9c0,3.257,21.279,5.9,47.5,5.9c26.22,0,47.5-2.643,47.5-5.9 M483,185.1v-47.2c0-3.257,21.279-5.9,47.5-5.9
		c26.22,0,47.5,2.643,47.5,5.9v47.2c0,3.257-21.28,5.9-47.5,5.9C504.279,191,483,188.356,483,185.1"/>
	<polygon fill="none" stroke="#41C5E7" stroke-width="3" stroke-miterlimit="10" points="532.848,363.606 535.195,355.391 
		529.215,355.873 	"/>
	<path fill="none" stroke="#666666" stroke-width="3" stroke-linecap="round" stroke-linejoin="round" stroke-miterlimit="10" d="
		M473.292,63.952"/>
	<path fill="none" stroke="#666666" stroke-width="3" stroke-linecap="round" stroke-linejoin="round" stroke-miterlimit="10" d="
		M346.154,124.158"/>
	<polygon fill="none" stroke="#41C5E7" stroke-width="3" stroke-miterlimit="10" points="481.155,61.699 472.754,60.143 
		473.802,66.051 	"/>
	<polygon fill="none" stroke="#41C5E7" stroke-width="3" stroke-miterlimit="10" points="344.01,132.669 349.044,125.767 
		343.264,124.158 	"/>
	<path fill="none" stroke="#666666" stroke-width="3" stroke-linecap="round" stroke-linejoin="round" stroke-miterlimit="10" d="
		M488,392.5c-97.826-12.623-349.425,17.988-404.5-35.178C30.325,305.989,56.856,176.563,47.658,83.524"/>
	<polygon fill="none" stroke="#666666" stroke-width="3" stroke-miterlimit="10" points="46.747,75.234 44.677,83.524 
		50.638,82.841 	"/>
	
		<line fill="none" stroke="#41C5E7" stroke-width="3" stroke-linecap="round" stroke-linejoin="round" stroke-miterlimit="10" x1="388.5" y1="161.5" x2="473.1" y2="161.5"/>
	<polygon fill="none" stroke="#41C5E7" stroke-width="3" stroke-miterlimit="10" points="481.1,161.5 473.1,158.5 473.1,164.5 	"/>
	<path fill="none" stroke="#41C5E7" stroke-width="3" stroke-linecap="round" stroke-linejoin="round" stroke-miterlimit="10" d="
		M343.5,188.5c-1.333,5.666-4,10.667-4,17c0,3.493,0.812,7.392,1.763,11.361"/>
	<polygon fill="none" stroke="#41C5E7" stroke-width="3" stroke-miterlimit="10" points="343.07,224.649 344.184,216.178 
		338.34,217.535 	"/>
	
		<rect x="94.5" y="282.5" fill="none" stroke="#666666" stroke-width="3" stroke-linecap="round" stroke-linejoin="round" stroke-miterlimit="10" width="41.632" height="28.5"/>
	
		<rect x="106.767" y="314.8" fill="none" stroke="#666666" stroke-width="3" stroke-linecap="round" stroke-linejoin="round" stroke-miterlimit="10" width="17.098" height="5.067"/>
	
		<rect x="104.487" y="319.867" fill="none" stroke="#666666" stroke-width="3" stroke-linecap="round" stroke-linejoin="round" stroke-miterlimit="10" width="21.658" height="5.064"/>
	
		<rect x="128.418" y="313.066" fill="none" stroke="#666666" stroke-width="3" stroke-linecap="round" stroke-linejoin="round" stroke-miterlimit="10" width="41.632" height="28.5"/>
	
		<rect x="140.685" y="345.366" fill="none" stroke="#666666" stroke-width="3" stroke-linecap="round" stroke-linejoin="round" stroke-miterlimit="10" width="17.098" height="5.065"/>
	
		<rect x="138.405" y="350.434" fill="none" stroke="#666666" stroke-width="3" stroke-linecap="round" stroke-linejoin="round" stroke-miterlimit="10" width="21.658" height="5.066"/>
	<polygon fill="none" stroke="#666666" stroke-width="3" stroke-miterlimit="10" points="172.928,326.958 181.223,329.005 
		180.523,323.046 	"/>
	<polygon fill="none" stroke="#666666" stroke-width="3" stroke-miterlimit="10" points="301.119,185.319 294.969,191.249 
		300.383,193.83 	"/>
	<polygon fill="none" stroke="#666666" stroke-width="3" stroke-miterlimit="10" points="143.49,285.528 152.022,285.98 
		150.215,280.259 	"/>
	<path fill="none" stroke="#41C5E7" stroke-width="3" stroke-linecap="round" stroke-linejoin="round" stroke-miterlimit="10" d="
		M346.154,124.158c0-19.731,19.992-37.231,50.917-48.209c21.231-7.536,45.99-12.853,74.596-12.853"/>
	<path fill="none" stroke="#666666" stroke-width="3" stroke-linecap="round" stroke-linejoin="round" stroke-miterlimit="10" d="
		M296.916,194.14"/>
	<path fill="none" stroke="#666666" stroke-width="3" stroke-linecap="round" stroke-linejoin="round" stroke-miterlimit="10" d="
		M151.296,282.093"/>
	<path fill="none" stroke="#666666" stroke-width="3" stroke-linecap="round" stroke-linejoin="round" stroke-miterlimit="10" d="
		M151.296,283.093c24.362,0,146.748-74.541,146.748-89.378"/>
	<path fill="none" stroke="#666666" stroke-width="3" stroke-linecap="round" stroke-linejoin="round" stroke-miterlimit="10" d="
		M181.223,326.025c70.798,0,160.039-25.388,160.039-45.525"/>
	<path fill="none" stroke="#41C5E7" stroke-width="3" stroke-linecap="round" stroke-linejoin="round" stroke-miterlimit="10" d="
		M530.5,191c1.705,0,1.705,0,1.705,164.391"/>
	
		<path fill="none" stroke="#666666" stroke-width="3" stroke-linecap="round" stroke-linejoin="round" stroke-miterlimit="10" stroke-dasharray="4,4" d="
		M298.5,151c-74.137,0-223.613-59.526-223.613-89.05"/>
	<path fill="none" stroke="#41C5E7" stroke-width="3" stroke-linecap="round" stroke-linejoin="round" stroke-miterlimit="10" d="
		M546.779,432.274c0,4.802-5.973,8.688-13.356,8.688s-13.356-3.886-13.356-8.688"/>
	<path fill="none" stroke="#41C5E7" stroke-width="3" stroke-linecap="round" stroke-linejoin="round" stroke-miterlimit="10" d="
		M553.555,442.479c0,7.239-9.003,13.098-20.132,13.098s-20.133-5.858-20.133-13.098"/>
	<path fill="none" stroke="#41C5E7" stroke-width="3" stroke-linecap="round" stroke-linejoin="round" stroke-miterlimit="10" d="
		M561.303,454.89c0,7.238-12.469,13.097-27.88,13.097s-27.881-5.858-27.881-13.097"/>
</g>
<g id="Layer_2">
	<g>
		<g enable-background="new    ">
			<path fill="none" stroke="#666666" d="M506.216,377.929c2.306,0,3.969,1.288,3.969,3.064c0,1.671-1.469,2.911-3.558,3.051
				c1.093,0.276,1.573,1.037,2.048,2.34c0.313,0.87,0.717,1.997,1.554,1.997c0.265,0,0.383-0.088,0.584-0.25
				c0.028-0.021,0.07-0.034,0.098-0.034c0.042,0,0.084,0.021,0.112,0.063c0.021,0.026,0.034,0.062,0.034,0.091
				c0,0.042-0.021,0.082-0.062,0.111c-0.237,0.182-0.453,0.257-0.802,0.257c-0.98,0-1.35-1.372-1.648-2.192
				c-0.605-1.679-1.178-2.368-3.093-2.368h-1.811v3.969c0,0.202,0.091,0.384,1.044,0.384h0.243v0.102h-2.784v-0.104h0.279
				c0.952,0,1.043-0.181,1.043-0.383v-9.645c0-0.217-0.125-0.349-1.043-0.349h-0.279v-0.104L506.216,377.929L506.216,377.929z
				 M503.64,383.917h1.811h0.746c2.221,0,3.816-1.226,3.816-2.925s-1.596-2.925-3.816-2.925h-2.556L503.64,383.917L503.64,383.917z"
				/>
		</g>
		<path fill="none" stroke="#666666" d="M516.086,383.493v3.384l0.112,0.661c0.098,0.585,0.229,0.828,0.425,0.835l0.745-0.068
			l0.014,0.139l-0.758,0.104h-0.008c-0.341,0-0.501-0.418-0.591-0.983c-0.036-0.215-0.112-0.627-0.112-0.683v-0.152
			c0-0.125-0.022-0.188-0.049-0.188c-0.027,0-0.063,0.049-0.105,0.146c-0.48,1.031-1.517,1.86-2.771,1.86
			c-1.572,0-2.716-0.773-2.716-1.846c0-1.337,1.288-1.805,2.709-1.95c0.864-0.091,2.638-0.153,2.896-0.995
			c0.021-0.077,0.035-0.153,0.035-0.224v-0.04c-0.008-1.22-0.863-2.116-2.098-2.116c-1.393,0-2.52,0.618-2.52,1.385
			c0,0.091-0.057,0.146-0.146,0.146c-0.091,0-0.146-0.056-0.146-0.146c0-0.843,1.253-1.524,2.792-1.524
			C515.125,381.236,516.086,382.184,516.086,383.493z M512.994,384.893c-1.405,0.146-2.549,0.592-2.549,1.811
			c0,0.988,1.067,1.707,2.542,1.707c1.651,0,2.926-1.52,2.926-2.995v-1.399C515.446,384.788,513.761,384.815,512.994,384.893z"/>
		<path fill="none" stroke="#666666" d="M523.116,381.939c0.14,0.112,0.217,0.209,0.272,0.209c0.077,0,0.104-0.104,0.104-0.319
			c0-0.035-0.007-0.168-0.02-0.557h0.11l0.077,2.09c0,0.026-0.022,0.049-0.058,0.049c-0.033,0-0.056-0.022-0.056-0.049l-0.007-0.057
			c-0.069-0.529-0.18-0.988-0.508-1.253c-0.697-0.57-1.512-0.675-2.104-0.675c-1.329,0-2.297,0.653-2.297,1.56
			c0,0.835,1.286,1.135,2.625,1.523c1.426,0.419,2.91,0.941,2.91,2.354c0,1.002-1.274,1.733-3.028,1.733
			c-1.003,0-1.665-0.174-2.415-0.815c-0.182-0.167-0.343-0.319-0.439-0.319c-0.091,0-0.133,0.119-0.146,0.445l-0.028,0.653h-0.104
			l0.082-2.297h0.105v0.074c0,0.55,0.251,1.018,0.647,1.344c0.717,0.585,1.315,0.773,2.298,0.773c1.659,0,2.855-0.669,2.855-1.594
			c0-1.295-1.42-1.77-2.827-2.18c-1.364-0.397-2.709-0.731-2.709-1.7c0-0.989,1.039-1.698,2.472-1.698
			C521.535,381.236,522.372,381.341,523.116,381.939z"/>
		<path fill="none" stroke="#666666" d="M527.055,391.75h0.522v0.105h-3.065v-0.105h0.278c0.953,0,1.044-0.18,1.044-0.382v-9.645
			c0-0.258-0.196-0.349-0.731-0.349h-0.173v-0.104h0.173l0.905-0.021v1.017c0.85-0.627,1.764-1.03,2.66-1.03
			c1.747,0,3.014,1.537,3.014,3.654s-1.294,3.656-3.083,3.656c-1.009,0-1.824-0.516-2.332-1.31c-0.07-0.112-0.14-0.195-0.188-0.195
			c-0.042,0-0.07,0.076-0.07,0.259v4.066C526.01,391.57,526.101,391.75,527.055,391.75z M526.01,386.361
			c0.377,1.219,1.33,2.047,2.59,2.047c1.686,0,2.911-1.476,2.911-3.516s-1.19-3.517-2.841-3.517c-0.884,0-1.797,0.411-2.66,1.064
			V386.361z"/>
		<path fill="none" stroke="#666666" d="M532.343,377.929l0.906-0.021v4.358c0.848-0.627,1.761-1.03,2.659-1.03
			c1.747,0,3.016,1.538,3.016,3.654c0,2.117-1.295,3.656-3.085,3.656c-1.037,0-1.88-0.536-2.381-1.38
			c-0.042-0.07-0.098-0.133-0.14-0.133c-0.035,0-0.069,0.042-0.075,0.182l-0.03,1.297h-0.139v-10.132
			c0-0.259-0.194-0.349-0.731-0.349H532.1v-0.104L532.343,377.929L532.343,377.929z M533.249,386.361
			c0.375,1.219,1.329,2.047,2.589,2.047c1.686,0,2.91-1.476,2.91-3.516s-1.189-3.517-2.84-3.517c-0.883,0-1.796,0.411-2.659,1.064
			V386.361z"/>
		<path fill="none" stroke="#666666" d="M540.132,384.893c0,2.033,1.303,3.516,3.17,3.516c1.572,0,2.535-0.683,3.057-1.608
			l0.124,0.07c-0.542,0.967-1.566,1.678-3.181,1.678c-1.958,0-3.344-1.562-3.344-3.655v-0.146c0.064-2.055,1.489-3.509,3.413-3.509
			c1.991,0,3.272,1.497,3.272,3.516c0,0.049-0.042,0.07-0.071,0.07h-6.441L540.132,384.893L540.132,384.893z M546.428,384.21
			c0-0.076-0.008-0.146-0.021-0.209c-0.271-1.553-1.38-2.625-3.035-2.625c-1.756,0-3.148,1.294-3.232,3.308h5.977
			C546.357,384.684,546.428,384.439,546.428,384.21z"/>
		<path fill="none" stroke="#666666" d="M552.37,382.448c-0.104,0-0.174-0.071-0.174-0.169c0-0.536-0.222-0.903-0.808-0.903
			c-1.399,0-2.443,1.53-2.443,3.271v3.377c0,0.201,0.09,0.383,1.043,0.383h0.384v0.105h-2.926v-0.104h0.277
			c0.955,0,1.046-0.181,1.046-0.383v-6.302c0-0.258-0.195-0.348-0.731-0.348h-0.174v-0.105h0.174l0.905-0.021v2.297
			c0.333-1.294,1.252-2.311,2.443-2.311c0.648,0,1.156,0.424,1.156,1.043C552.545,382.378,552.475,382.448,552.37,382.448z"/>
		<path fill="none" stroke="#666666" d="M558.028,382.448c-0.104,0-0.175-0.071-0.175-0.169c0-0.536-0.221-0.903-0.806-0.903
			c-1.399,0-2.445,1.53-2.445,3.271v3.377c0,0.201,0.091,0.383,1.046,0.383h0.382v0.105h-2.926v-0.104h0.279
			c0.953,0,1.043-0.181,1.043-0.383v-6.302c0-0.258-0.195-0.348-0.731-0.348h-0.173v-0.105h0.173l0.905-0.021v2.297
			c0.334-1.294,1.254-2.311,2.444-2.311c0.646,0,1.154,0.424,1.154,1.043C558.202,382.378,558.133,382.448,558.028,382.448z"/>
		<path fill="none" stroke="#666666" d="M566.478,381.271v0.104h-0.076c-0.487,0-0.746,0.147-0.892,0.515l-2.92,6.936
			c-0.772,1.838-1.62,3.022-2.973,3.022c-1.148,0-1.914-0.543-1.914-1.357c0-0.119,0.027-0.236,0.076-0.354
			c0.026-0.071,0.083-0.105,0.146-0.105c0.026,0,0.049,0,0.076,0.015c0.07,0.027,0.112,0.091,0.112,0.153
			c0,0.021-0.007,0.049-0.015,0.069c-0.05,0.12-0.076,0.229-0.076,0.341c0,0.662,0.641,1.102,1.602,1.102
			c1.268,0,2.082-1.144,2.834-2.933l0.04-0.089c0.007-0.016,0.007-0.028,0.007-0.049c0-0.097-0.061-0.285-0.104-0.39l-2.45-5.933
			c-0.3-0.725-0.411-0.822-0.862-0.822c-0.098,0-0.202,0.015-0.328,0.056c-0.015,0.008-0.035,0.015-0.049,0.015
			c-0.084,0-0.131-0.041-0.131-0.132c0-0.182,0.34-0.195,0.473-0.195c0.613,0,0.746,0.258,1.064,1.038l2.39,5.758
			c0.063,0.146,0.082,0.202,0.132,0.202c0.048,0,0.069-0.062,0.132-0.209l2.61-6.177c0.036-0.088,0.063-0.159,0.063-0.221
			c0-0.224-0.299-0.251-1.043-0.251h-0.697v-0.105h2.772V381.271z"/>
		<path fill="none" stroke="#666666" d="M531.513,396.507c2.952,0,3.969,2.222,3.969,3.621c0,1.428-1.044,3.621-3.969,3.621h-2.749
			v2.854c0,0.202,0.089,0.384,1.043,0.384h0.245v0.104h-2.786v-0.104h0.277c0.955,0,1.046-0.182,1.046-0.384v-9.644
			c0-0.217-0.126-0.35-1.046-0.35h-0.277v-0.104L531.513,396.507L531.513,396.507z M531.491,403.61c2.842,0,3.817-2.11,3.817-3.482
			c0-1.344-0.947-3.481-3.817-3.481h-2.728v6.964H531.491L531.491,403.61z"/>
		<path fill="none" stroke="#666666" d="M536.12,407.092v-0.104h0.279c0.953,0,1.043-0.182,1.043-0.384v-9.629
			c0-0.218-0.125-0.363-1.043-0.363h-0.279v-0.104h2.785v0.104h-0.242c-0.92,0-1.046,0.146-1.046,0.363v9.629
			c0,0.202,0.091,0.384,1.046,0.384h0.242v0.104H536.12z"/>
	</g>
	<g>
		<path fill="none" stroke="#666666" d="M20.906,42.417c0,1.692,1.873,2.263,3.028,2.938c1.239,0.725,3.321,1.427,3.321,3.448
			c0,1.288-1.434,2.221-3.412,2.221c-1.073,0-2.263-0.328-2.974-1.018c-0.167-0.18-0.307-0.326-0.404-0.326
			c-0.09,0-0.139,0.119-0.146,0.446l-0.034,1.002H20.18l0.09-2.646h0.104v0.077c0,1.538,1.824,2.312,3.467,2.312
			c1.901,0,3.237-0.864,3.237-2.068c0-1.916-1.95-2.556-3.217-3.294c-1.107-0.648-3.133-1.282-3.133-3.091
			c0-1.212,1.233-2.047,2.833-2.047c0.746,0,1.748,0.265,2.375,0.981c0.118,0.139,0.208,0.202,0.265,0.202
			c0.077,0,0.104-0.104,0.104-0.319c0-0.111-0.027-0.585-0.035-0.968h0.112l0.104,2.646c0,0.027-0.021,0.049-0.056,0.049
			c-0.035,0-0.056-0.022-0.056-0.049l-0.019-0.202c-0.174-1.659-1.72-2.187-2.792-2.187C22,40.522,20.906,41.317,20.906,42.417z"/>
		<path fill="none" stroke="#666666" d="M30.144,54.226h0.522v0.105h-3.064v-0.105h0.279c0.954,0,1.044-0.18,1.044-0.382v-9.645
			c0-0.257-0.194-0.348-0.73-0.348h-0.174v-0.104h0.174l0.906-0.022v1.017c0.849-0.627,1.761-1.031,2.66-1.031
			c1.748,0,3.016,1.539,3.016,3.655c0,2.117-1.296,3.655-3.085,3.655c-1.01,0-1.824-0.515-2.333-1.31
			c-0.07-0.111-0.14-0.195-0.188-0.195c-0.041,0-0.069,0.077-0.069,0.259v4.066C29.099,54.045,29.189,54.226,30.144,54.226z
			 M29.099,48.837c0.376,1.218,1.33,2.047,2.589,2.047c1.685,0,2.912-1.476,2.912-3.517c0-2.04-1.19-3.516-2.842-3.516
			c-0.884,0-1.796,0.411-2.66,1.064L29.099,48.837L29.099,48.837z"/>
		<path fill="none" stroke="#666666" d="M42.632,47.368c0,2.117-1.434,3.656-3.411,3.656c-1.978,0-3.412-1.539-3.412-3.656
			c0-2.117,1.434-3.655,3.412-3.655C41.198,43.712,42.632,45.251,42.632,47.368z M35.982,47.368c0,2.041,1.357,3.517,3.239,3.517
			c1.881,0,3.238-1.476,3.238-3.517c0-2.04-1.357-3.516-3.238-3.516C37.34,43.852,35.982,45.328,35.982,47.368z"/>
		<path fill="none" stroke="#666666" d="M43.243,43.887h0.627c0.605,0,0.697-0.119,0.697-0.857v-1.233h0.139v1.854
			c0,0.153,0.063,0.237,0.251,0.237h3.301v0.138h-3.301c-0.188,0-0.251,0.09-0.251,0.244v4.004c0,1.519,0.767,2.612,1.817,2.612
			c0.627,0,1.309-0.265,1.678-0.849l0.112,0.07c-0.397,0.634-1.129,0.919-1.79,0.919c-1.156,0-1.992-1.156-1.992-2.75V44.27
			c0-0.153-0.062-0.244-0.25-0.244h-1.038V43.887z"/>
		<path fill="none" stroke="#666666" d="M51.637,50.884h0.244v0.104h-2.786v-0.104h0.279c0.955,0,1.044-0.182,1.044-0.383v-6.302
			c0-0.257-0.194-0.348-0.73-0.348h-0.174v-0.104h0.174l0.906-0.022V50.5C50.592,50.703,50.683,50.884,51.637,50.884z M50.487,41.1
			c0.147,0,0.279,0.125,0.279,0.279c0,0.146-0.125,0.278-0.279,0.278c-0.146,0-0.278-0.125-0.278-0.278
			C50.209,41.233,50.334,41.1,50.487,41.1z"/>
		<path fill="none" stroke="#666666" d="M52.788,43.887h0.862c0.119,0,0.244-0.028,0.223-0.244
			c-0.028-0.278-0.056-0.564-0.056-0.863c0-1.671,1.19-2.375,2.214-2.375c1.065,0,1.838,0.641,1.838,1.519
			c0,0.084-0.056,0.146-0.146,0.146c-0.091,0-0.146-0.062-0.146-0.146c0-0.8-0.648-1.379-1.546-1.379
			c-0.955,0-2.047,0.634-2.047,2.243c0,0.292,0.035,0.571,0.063,0.843c0.021,0.21,0.188,0.259,0.278,0.259h1.804v0.138h-1.804
			c-0.188,0-0.25,0.091-0.25,0.244v6.267c0,0.202,0.091,0.349,1.044,0.349h0.174v0.104h-2.716v-0.104h0.278
			c0.955,0,1.044-0.146,1.044-0.349v-6.274c0-0.167-0.077-0.237-0.251-0.237h-0.862L52.788,43.887L52.788,43.887z"/>
		<path fill="none" stroke="#666666" d="M64.808,43.748v0.104h-0.077c-0.487,0-0.746,0.146-0.892,0.514l-2.918,6.936
			c-0.773,1.838-1.622,3.022-2.974,3.022c-1.15,0-1.915-0.543-1.915-1.357c0-0.119,0.028-0.237,0.076-0.355
			c0.028-0.071,0.083-0.104,0.146-0.104c0.028,0,0.049,0,0.077,0.014c0.07,0.028,0.112,0.091,0.112,0.154
			c0,0.021-0.008,0.048-0.015,0.069c-0.048,0.12-0.076,0.23-0.076,0.341c0,0.662,0.641,1.101,1.601,1.101
			c1.267,0,2.082-1.142,2.833-2.932l0.042-0.09c0.007-0.015,0.007-0.028,0.007-0.048c0-0.098-0.062-0.286-0.104-0.39l-2.451-5.933
			c-0.3-0.725-0.411-0.822-0.864-0.822c-0.098,0-0.202,0.015-0.328,0.055c-0.014,0.009-0.035,0.016-0.049,0.016
			c-0.083,0-0.132-0.042-0.132-0.133c0-0.181,0.34-0.195,0.474-0.195c0.613,0,0.745,0.258,1.065,1.038l2.388,5.758
			c0.063,0.146,0.084,0.203,0.133,0.203c0.048,0,0.069-0.063,0.132-0.209l2.611-6.176c0.035-0.09,0.063-0.161,0.063-0.222
			c0-0.224-0.3-0.251-1.043-0.251h-0.697v-0.104h2.774V43.748z"/>
	</g>
	<g>
		<path fill="none" stroke="#666666" d="M495.895,50.017c2.952,0,3.969,2.221,3.969,3.621c0,1.427-1.044,3.62-3.969,3.62h-2.75
			v2.856c0,0.202,0.09,0.383,1.044,0.383h0.245v0.105h-2.787v-0.105h0.278c0.954,0,1.044-0.181,1.044-0.383v-9.645
			c0-0.216-0.124-0.349-1.044-0.349h-0.278v-0.104L495.895,50.017L495.895,50.017z M495.873,57.12c2.842,0,3.817-2.11,3.817-3.482
			c0-1.344-0.947-3.481-3.817-3.481h-2.729v6.963H495.873z"/>
		<path fill="none" stroke="#666666" d="M503.211,60.496h0.244v0.105h-2.785v-0.105h0.277c0.954,0,1.045-0.181,1.045-0.383v-9.645
			c0-0.258-0.195-0.349-0.73-0.349h-0.315v-0.104h0.315l0.904-0.021v10.117C502.167,60.315,502.258,60.496,503.211,60.496z"/>
		<path fill="none" stroke="#666666" d="M510.071,55.581v3.384l0.112,0.66c0.098,0.586,0.229,0.83,0.424,0.836l0.745-0.07
			l0.015,0.14l-0.758,0.104h-0.007c-0.342,0-0.503-0.417-0.594-0.982c-0.034-0.215-0.11-0.627-0.11-0.683v-0.153
			c0-0.125-0.022-0.188-0.051-0.188c-0.025,0-0.061,0.049-0.104,0.146c-0.48,1.031-1.518,1.86-2.771,1.86
			c-1.574,0-2.715-0.773-2.715-1.846c0-1.336,1.287-1.804,2.708-1.95c0.862-0.09,2.639-0.153,2.896-0.995
			c0.023-0.077,0.035-0.153,0.035-0.223v-0.041c-0.007-1.219-0.863-2.117-2.097-2.117c-1.393,0-2.521,0.619-2.521,1.385
			c0,0.091-0.056,0.146-0.146,0.146s-0.147-0.055-0.147-0.146c0-0.843,1.254-1.525,2.792-1.525
			C509.111,53.325,510.071,54.271,510.071,55.581z M506.979,56.98c-1.406,0.146-2.548,0.592-2.548,1.811
			c0,0.989,1.064,1.707,2.541,1.707c1.65,0,2.926-1.519,2.926-2.994v-1.399C509.431,56.876,507.746,56.904,506.979,56.98z"/>
		<path fill="none" stroke="#666666" d="M519.003,53.359v0.105h-0.075c-0.487,0-0.747,0.146-0.893,0.514l-2.919,6.936
			c-0.773,1.838-1.62,3.023-2.973,3.023c-1.149,0-1.914-0.544-1.914-1.358c0-0.119,0.026-0.236,0.075-0.355
			c0.027-0.071,0.083-0.105,0.146-0.105c0.026,0,0.049,0,0.076,0.014c0.07,0.028,0.112,0.091,0.112,0.153
			c0,0.021-0.008,0.049-0.015,0.07c-0.05,0.12-0.076,0.23-0.076,0.341c0,0.662,0.641,1.101,1.602,1.101
			c1.268,0,2.082-1.143,2.833-2.932l0.041-0.089c0.007-0.015,0.007-0.028,0.007-0.049c0-0.098-0.062-0.286-0.104-0.39l-2.449-5.932
			c-0.301-0.725-0.411-0.822-0.862-0.822c-0.098,0-0.202,0.015-0.328,0.056c-0.015,0.008-0.035,0.015-0.049,0.015
			c-0.084,0-0.132-0.042-0.132-0.132c0-0.181,0.341-0.195,0.474-0.195c0.613,0,0.744,0.258,1.064,1.038l2.388,5.758
			c0.065,0.146,0.084,0.202,0.134,0.202c0.048,0,0.068-0.062,0.132-0.208l2.61-6.177c0.036-0.089,0.063-0.16,0.063-0.222
			c0-0.223-0.3-0.25-1.043-0.25h-0.697v-0.105h2.771V53.359z"/>
		<path fill="none" stroke="#666666" d="M521.521,60.496h0.242v0.105h-2.784v-0.105h0.279c0.952,0,1.043-0.181,1.043-0.383v-9.645
			c0-0.258-0.194-0.349-0.731-0.349h-0.312v-0.104h0.312l0.905-0.021v10.117C520.476,60.315,520.566,60.496,521.521,60.496z"/>
		<path fill="none" stroke="#666666" d="M525.005,60.496h0.242v0.105h-2.784v-0.105h0.279c0.952,0,1.043-0.181,1.043-0.383v-6.302
			c0-0.258-0.194-0.349-0.731-0.349h-0.174v-0.104h0.174l0.905-0.022v6.775C523.959,60.315,524.05,60.496,525.005,60.496z
			 M523.854,50.713c0.146,0,0.278,0.125,0.278,0.278c0,0.146-0.125,0.279-0.278,0.279c-0.146,0-0.278-0.125-0.278-0.279
			C523.576,50.846,523.7,50.713,523.854,50.713z"/>
		<g enable-background="new    ">
			<path fill="none" stroke="#666666" d="M529.806,54.027c0.14,0.112,0.216,0.208,0.271,0.208c0.078,0,0.105-0.104,0.105-0.319
				c0-0.035-0.008-0.167-0.021-0.556h0.111l0.077,2.089c0,0.027-0.021,0.049-0.057,0.049c-0.034,0-0.056-0.022-0.056-0.049
				l-0.007-0.056c-0.07-0.53-0.18-0.989-0.509-1.253c-0.696-0.571-1.511-0.676-2.103-0.676c-1.33,0-2.299,0.654-2.299,1.56
				c0,0.836,1.288,1.136,2.626,1.524c1.427,0.418,2.91,0.94,2.91,2.354c0,1.002-1.274,1.734-3.028,1.734
				c-1.003,0-1.664-0.174-2.415-0.815c-0.182-0.167-0.343-0.319-0.439-0.319c-0.091,0-0.133,0.119-0.146,0.446l-0.028,0.654h-0.104
				l0.084-2.298h0.104v0.075c0,0.55,0.251,1.017,0.647,1.343c0.717,0.585,1.316,0.773,2.299,0.773c1.658,0,2.855-0.668,2.855-1.594
				c0-1.294-1.42-1.769-2.828-2.18c-1.364-0.397-2.708-0.731-2.708-1.7c0-0.989,1.037-1.699,2.472-1.699
				C528.225,53.325,529.062,53.428,529.806,54.027z"/>
		</g>
		<path fill="none" stroke="#666666" d="M530.826,53.499h0.626c0.604,0,0.696-0.12,0.696-0.857v-1.233h0.14v1.853
			c0,0.153,0.062,0.237,0.25,0.237h3.302v0.138h-3.302c-0.188,0-0.25,0.091-0.25,0.244v4.003c0,1.519,0.766,2.611,1.817,2.611
			c0.625,0,1.309-0.265,1.678-0.849l0.111,0.07c-0.397,0.634-1.129,0.919-1.789,0.919c-1.156,0-1.992-1.157-1.992-2.751v-4.003
			c0-0.153-0.063-0.244-0.252-0.244h-1.036L530.826,53.499L530.826,53.499z"/>
		<path fill="none" stroke="#666666" d="M540.165,61.388l-0.145-0.09l7.331-11.447l0.145,0.091L540.165,61.388z"/>
		<path fill="none" stroke="#666666" d="M555.626,50.017v0.104h-0.521c-0.954,0-1.045,0.181-1.045,0.383v6.72
			c0,1.887,1.295,3.272,3.17,3.272c1.928,0,3.342-1.358,3.342-3.272v-6.72c0-0.202-0.091-0.383-1.043-0.383h-0.523v-0.104h2.89
			v0.104h-0.142c-0.954,0-1.045,0.181-1.045,0.383v6.72c0,1.991-1.48,3.411-3.479,3.411c-1.95,0-3.343-1.449-3.343-3.411v-6.72
			c0-0.202-0.09-0.383-1.045-0.383h-0.279v-0.104H555.626z"/>
		<path fill="none" stroke="#666666" d="M567.183,54.027c0.14,0.112,0.217,0.208,0.272,0.208c0.076,0,0.104-0.104,0.104-0.319
			c0-0.035-0.007-0.167-0.021-0.556h0.111l0.077,2.089c0,0.027-0.022,0.049-0.058,0.049c-0.033,0-0.056-0.022-0.056-0.049
			l-0.007-0.056c-0.069-0.53-0.181-0.989-0.508-1.253c-0.698-0.571-1.512-0.676-2.104-0.676c-1.329,0-2.298,0.654-2.298,1.56
			c0,0.836,1.287,1.136,2.625,1.524c1.427,0.418,2.911,0.94,2.911,2.354c0,1.002-1.274,1.734-3.03,1.734
			c-1.001,0-1.663-0.174-2.414-0.815c-0.182-0.167-0.344-0.319-0.439-0.319c-0.09,0-0.132,0.119-0.146,0.446l-0.027,0.654h-0.104
			l0.083-2.298h0.105v0.075c0,0.55,0.25,1.017,0.647,1.343c0.717,0.585,1.315,0.773,2.297,0.773c1.659,0,2.855-0.668,2.855-1.594
			c0-1.294-1.42-1.769-2.827-2.18c-1.364-0.397-2.709-0.731-2.709-1.7c0-0.989,1.039-1.699,2.473-1.699
			C565.603,53.325,566.439,53.428,567.183,54.027z"/>
		<path fill="none" stroke="#666666" d="M569.283,56.98c0,2.033,1.302,3.516,3.168,3.516c1.574,0,2.537-0.683,3.058-1.609
			l0.124,0.071c-0.542,0.967-1.566,1.677-3.182,1.677c-1.957,0-3.343-1.561-3.343-3.655v-0.146c0.063-2.055,1.49-3.509,3.413-3.509
			c1.991,0,3.271,1.497,3.271,3.516c0,0.049-0.042,0.07-0.07,0.07h-6.44L569.283,56.98L569.283,56.98z M575.579,56.297
			c0-0.075-0.008-0.146-0.022-0.209c-0.271-1.552-1.379-2.625-3.035-2.625c-1.756,0-3.147,1.295-3.231,3.308h5.975
			C575.509,56.771,575.579,56.527,575.579,56.297z"/>
		<path fill="none" stroke="#666666" d="M581.521,54.537c-0.105,0-0.173-0.071-0.173-0.168c0-0.536-0.224-0.904-0.809-0.904
			c-1.399,0-2.442,1.531-2.442,3.272v3.377c0,0.202,0.089,0.383,1.042,0.383h0.383v0.105h-2.924v-0.105h0.277
			c0.953,0,1.044-0.181,1.044-0.383v-6.302c0-0.258-0.194-0.349-0.731-0.349h-0.172v-0.104h0.172l0.906-0.022v2.298
			c0.334-1.294,1.252-2.312,2.442-2.312c0.65,0,1.157,0.425,1.157,1.044C581.695,54.466,581.625,54.537,581.521,54.537z"/>
		<path fill="none" stroke="#666666" d="M517.507,76.285l0.062,0.697c0.05,0.514,0.245,0.94,0.453,0.946l0.676-0.124l0.027,0.138
			l-0.683,0.113h-0.015c-0.361,0-0.585-0.543-0.634-1.059l-0.027-0.313c-0.015-0.118-0.034-0.188-0.076-0.188
			s-0.084,0.049-0.139,0.146c-0.502,0.855-1.359,1.414-2.409,1.414c-1.789,0-3.084-1.538-3.084-3.655s1.267-3.655,3.015-3.655
			c0.897,0,1.815,0.404,2.66,1.031v-3.887c0-0.258-0.194-0.349-0.73-0.349h-0.315v-0.104h0.315l0.904-0.021L517.507,76.285
			L517.507,76.285z M517.332,71.947c-0.864-0.661-1.775-1.065-2.66-1.065c-1.651,0-2.842,1.476-2.842,3.516s1.229,3.516,2.912,3.516
			c1.26,0,2.214-0.843,2.59-2.061V71.947L517.332,71.947z"/>
		<path fill="none" stroke="#666666" d="M525.309,72.999v3.384l0.112,0.66c0.098,0.586,0.229,0.83,0.425,0.836l0.744-0.07
			l0.014,0.14l-0.757,0.104h-0.008c-0.341,0-0.502-0.418-0.592-0.983c-0.035-0.215-0.112-0.627-0.112-0.683v-0.153
			c0-0.125-0.021-0.188-0.049-0.188c-0.025,0-0.062,0.049-0.104,0.146c-0.48,1.031-1.517,1.86-2.771,1.86
			c-1.574,0-2.717-0.773-2.717-1.846c0-1.336,1.287-1.804,2.709-1.95c0.863-0.091,2.638-0.153,2.896-0.995
			c0.022-0.077,0.035-0.153,0.035-0.223v-0.041c-0.007-1.219-0.863-2.117-2.097-2.117c-1.393,0-2.52,0.619-2.52,1.385
			c0,0.091-0.057,0.146-0.146,0.146c-0.091,0-0.146-0.056-0.146-0.146c0-0.843,1.253-1.524,2.791-1.524
			C524.348,70.743,525.309,71.689,525.309,72.999z M522.217,74.398c-1.405,0.146-2.549,0.592-2.549,1.81
			c0,0.99,1.066,1.707,2.543,1.707c1.65,0,2.924-1.519,2.924-2.994v-1.399C524.669,74.293,522.983,74.321,522.217,74.398z"/>
		<path fill="none" stroke="#666666" d="M526.748,70.917h0.626c0.606,0,0.698-0.12,0.698-0.856v-1.233h0.138v1.853
			c0,0.153,0.063,0.237,0.252,0.237h3.3v0.138h-3.3c-0.188,0-0.252,0.091-0.252,0.244v4.003c0,1.519,0.766,2.611,1.818,2.611
			c0.626,0,1.309-0.265,1.677-0.849l0.112,0.07c-0.397,0.634-1.13,0.919-1.789,0.919c-1.157,0-1.993-1.157-1.993-2.751V71.3
			c0-0.153-0.062-0.244-0.25-0.244h-1.039v-0.14H526.748z"/>
		<path fill="none" stroke="#666666" d="M538.519,72.999v3.384l0.111,0.66c0.098,0.586,0.229,0.83,0.425,0.836l0.746-0.07
			l0.015,0.14l-0.76,0.104h-0.007c-0.341,0-0.503-0.418-0.594-0.983c-0.032-0.215-0.11-0.627-0.11-0.683v-0.153
			c0-0.125-0.021-0.188-0.049-0.188c-0.027,0-0.062,0.049-0.104,0.146c-0.48,1.031-1.519,1.86-2.771,1.86
			c-1.574,0-2.716-0.773-2.716-1.846c0-1.336,1.287-1.804,2.709-1.95c0.861-0.091,2.638-0.153,2.896-0.995
			c0.021-0.077,0.033-0.153,0.033-0.223v-0.041c-0.007-1.219-0.863-2.117-2.095-2.117c-1.393,0-2.521,0.619-2.521,1.385
			c0,0.091-0.056,0.146-0.146,0.146c-0.091,0-0.146-0.056-0.146-0.146c0-0.843,1.253-1.524,2.792-1.524
			C537.558,70.743,538.519,71.689,538.519,72.999z M535.427,74.398c-1.407,0.146-2.548,0.592-2.548,1.81
			c0,0.99,1.064,1.707,2.541,1.707c1.649,0,2.925-1.519,2.925-2.994v-1.399C537.877,74.293,536.192,74.321,535.427,74.398z"/>
		<path fill="none" stroke="#666666" d="M540.186,67.434l0.906-0.021v4.359c0.85-0.626,1.761-1.031,2.659-1.031
			c1.749,0,3.017,1.539,3.017,3.655s-1.294,3.655-3.085,3.655c-1.038,0-1.879-0.536-2.382-1.379
			c-0.042-0.071-0.098-0.133-0.14-0.133c-0.033,0-0.069,0.042-0.075,0.182l-0.028,1.295h-0.138V67.884
			c0-0.258-0.195-0.349-0.732-0.349h-0.243v-0.104h0.241V67.434z M541.092,75.868c0.375,1.218,1.33,2.047,2.589,2.047
			c1.687,0,2.912-1.476,2.912-3.516s-1.19-3.516-2.842-3.516c-0.884,0-1.796,0.411-2.659,1.064V75.868z"/>
		<path fill="none" stroke="#666666" d="M553.49,72.999v3.384l0.112,0.66c0.098,0.586,0.229,0.83,0.425,0.836l0.746-0.07l0.014,0.14
			l-0.759,0.104h-0.007c-0.342,0-0.502-0.418-0.592-0.983c-0.035-0.215-0.111-0.627-0.111-0.683v-0.153
			c0-0.125-0.022-0.188-0.05-0.188s-0.062,0.049-0.105,0.146c-0.479,1.031-1.518,1.86-2.771,1.86c-1.573,0-2.715-0.773-2.715-1.846
			c0-1.336,1.288-1.804,2.708-1.95c0.864-0.091,2.639-0.153,2.897-0.995c0.021-0.077,0.035-0.153,0.035-0.223v-0.041
			c-0.008-1.219-0.864-2.117-2.099-2.117c-1.392,0-2.521,0.619-2.521,1.385c0,0.091-0.056,0.146-0.145,0.146
			c-0.091,0-0.147-0.056-0.147-0.146c0-0.843,1.254-1.524,2.793-1.524C552.53,70.743,553.49,71.689,553.49,72.999z M550.398,74.398
			c-1.406,0.146-2.547,0.592-2.547,1.81c0,0.99,1.064,1.707,2.54,1.707c1.651,0,2.927-1.519,2.927-2.994v-1.399
			C552.85,74.293,551.165,74.321,550.398,74.398z"/>
		<path fill="none" stroke="#666666" d="M560.52,71.445c0.14,0.112,0.217,0.209,0.272,0.209c0.077,0,0.104-0.104,0.104-0.319
			c0-0.035-0.007-0.167-0.021-0.556h0.111l0.077,2.089c0,0.026-0.022,0.049-0.057,0.049s-0.057-0.022-0.057-0.049l-0.007-0.056
			c-0.069-0.53-0.18-0.989-0.509-1.252c-0.697-0.572-1.51-0.676-2.104-0.676c-1.328,0-2.297,0.653-2.297,1.559
			c0,0.836,1.287,1.135,2.625,1.524c1.428,0.418,2.911,0.941,2.911,2.354c0,1.002-1.274,1.733-3.029,1.733
			c-1.002,0-1.664-0.174-2.415-0.815c-0.182-0.167-0.343-0.319-0.438-0.319c-0.091,0-0.133,0.119-0.146,0.446l-0.028,0.654h-0.104
			l0.084-2.298h0.104v0.075c0,0.551,0.25,1.017,0.647,1.343c0.717,0.586,1.315,0.773,2.298,0.773c1.658,0,2.855-0.668,2.855-1.594
			c0-1.294-1.421-1.769-2.828-2.18c-1.363-0.397-2.709-0.731-2.709-1.7c0-0.989,1.039-1.699,2.473-1.699
			C558.939,70.743,559.776,70.846,560.52,71.445z"/>
		<path fill="none" stroke="#666666" d="M562.62,74.398c0,2.033,1.302,3.516,3.168,3.516c1.574,0,2.537-0.683,3.059-1.609
			l0.123,0.071c-0.542,0.967-1.565,1.678-3.182,1.678c-1.957,0-3.343-1.561-3.343-3.655v-0.146c0.064-2.055,1.49-3.509,3.413-3.509
			c1.991,0,3.271,1.497,3.271,3.516c0,0.049-0.041,0.07-0.07,0.07h-6.44L562.62,74.398L562.62,74.398z M568.916,73.715
			c0-0.076-0.008-0.146-0.021-0.209c-0.271-1.552-1.381-2.625-3.036-2.625c-1.755,0-3.147,1.295-3.231,3.308h5.976
			C568.846,74.188,568.916,73.945,568.916,73.715z"/>
	</g>
	<g>
		<path fill="none" stroke="#666666" d="M326.808,145.247c2.946,0,5.083,2.221,5.083,5.292s-2.138,5.292-5.083,5.292h-4.003v-0.104
			h0.278c0.955,0,1.045-0.188,1.045-0.39V145.7c0-0.216-0.125-0.348-1.045-0.348h-0.278v-0.104H326.808z M324.301,155.692h2.471
			c2.869,0,4.944-2.166,4.944-5.153s-2.075-5.153-4.944-5.153h-2.471V155.692z"/>
		<path fill="none" stroke="#666666" d="M333.741,156.387v-7.346c0-0.257-0.195-0.348-0.731-0.348h-0.313v-0.104h0.313l0.905-0.022
			v7.819c0,1.991-0.981,2.786-2.047,2.786c-0.244,0-0.558-0.113-0.746-0.259c-0.042-0.026-0.062-0.07-0.062-0.111
			c0-0.077,0.077-0.154,0.146-0.154c0.027,0,0.069,0.014,0.097,0.035c0.202,0.16,0.439,0.257,0.669,0.257
			C332.823,158.944,333.741,158.33,333.741,156.387z M333.846,145.942c0.146,0,0.278,0.125,0.278,0.279
			c0,0.146-0.125,0.278-0.278,0.278c-0.145,0-0.278-0.125-0.278-0.278C333.567,146.076,333.692,145.942,333.846,145.942z"/>
		<path fill="none" stroke="#666666" d="M341.263,150.811v3.384l0.111,0.661c0.098,0.585,0.23,0.829,0.425,0.836l0.746-0.07
			l0.014,0.139l-0.758,0.104h-0.007c-0.341,0-0.501-0.418-0.591-0.982c-0.035-0.216-0.112-0.627-0.112-0.683v-0.154
			c0-0.125-0.02-0.188-0.048-0.188c-0.028,0-0.062,0.049-0.104,0.146c-0.481,1.031-1.518,1.86-2.771,1.86
			c-1.574,0-2.716-0.773-2.716-1.847c0-1.336,1.288-1.803,2.709-1.949c0.864-0.091,2.638-0.153,2.897-0.996
			c0.021-0.077,0.034-0.153,0.034-0.223v-0.041c-0.006-1.219-0.863-2.116-2.095-2.116c-1.393,0-2.52,0.619-2.52,1.385
			c0,0.091-0.056,0.146-0.146,0.146c-0.091,0-0.146-0.056-0.146-0.146c0-0.843,1.252-1.524,2.792-1.524
			C340.302,148.554,341.263,149.501,341.263,150.811z M338.171,152.21c-1.406,0.146-2.549,0.592-2.549,1.811
			c0,0.989,1.064,1.707,2.542,1.707c1.65,0,2.925-1.519,2.925-2.995v-1.399C340.622,152.106,338.938,152.133,338.171,152.21z"/>
		<path fill="none" stroke="#666666" d="M343.669,148.59l0.906-0.022v2.451c0,0.119,0.014,0.216,0.049,0.216
			c0.028,0,0.062-0.049,0.111-0.173c0.551-1.407,1.776-2.507,3.077-2.507c1.49,0,2.298,0.683,2.298,1.95v4.84
			c0,0.202,0.091,0.383,1.044,0.383h0.279v0.104h-2.925v-0.104h0.383c0.953,0,1.044-0.182,1.044-0.383v-4.817
			c0-1.178-0.718-1.812-2.124-1.812c-1.644,0-3.238,1.88-3.238,3.899v2.73c0,0.202,0.091,0.383,1.044,0.383H346v0.104h-2.925v-0.104
			h0.279c0.954,0,1.043-0.182,1.043-0.383v-6.302c0-0.258-0.194-0.348-0.73-0.348h-0.174v-0.104H343.669L343.669,148.59z"/>
		<g enable-background="new    ">
			<path fill="none" stroke="#666666" d="M355.92,149.167c0.056,0.049,0.098,0.077,0.14,0.077s0.069-0.028,0.098-0.098
				c0.125-0.355,0.383-0.585,0.745-0.592c0.16,0,0.683,0.007,0.683,0.195c0,0.091-0.056,0.161-0.139,0.161
				c-0.182,0-0.321-0.216-0.558-0.216c-0.349,0-0.6,0.292-0.669,0.788c0.335,0.423,0.509,0.974,0.509,1.615
				c0,1.665-1.157,2.542-2.646,2.542c-0.502,0-0.946-0.083-1.33-0.244c-0.224,0.216-0.426,0.446-0.426,0.746
				c0,0.195,0.028,0.307,0.091,0.424c0.335,0.62,1.531,0.557,2.849,0.62c1.309,0.063,2.716,0.313,2.716,2.103
				c0,1.261-1.4,1.888-3.809,1.888c-2.096,0-3.642-0.759-3.642-1.873c0-1.122,1.002-2.13,1.482-2.59
				c0.14-0.139,0.174-0.3,0.174-0.515v-0.055c0-0.341,0.224-0.6,0.433-0.807c-0.836-0.405-1.322-1.198-1.322-2.237
				c0-1.684,1.232-2.541,2.784-2.541C354.842,148.554,355.475,148.778,355.92,149.167z M350.671,157.301
				c0,0.96,1.406,1.699,3.503,1.699c2.416,0,3.669-0.592,3.669-1.714c0-1.629-1.254-1.872-2.584-1.936
				c-1.1-0.056-2.241,0.015-2.778-0.495c-0.09-0.083-0.146-0.138-0.209-0.138c-0.049,0-0.097,0.033-0.174,0.104
				C351.619,155.288,350.671,156.27,350.671,157.301z M351.472,151.096c0,1.47,0.975,2.403,2.611,2.403
				c1.435,0,2.473-0.822,2.473-2.403c0-1.448-0.913-2.401-2.473-2.401C352.579,148.695,351.472,149.501,351.472,151.096z"/>
		</g>
		<path fill="none" stroke="#666666" d="M364.536,152.21c0,2.117-1.435,3.655-3.411,3.655c-1.979,0-3.412-1.538-3.412-3.655
			c0-2.117,1.434-3.655,3.412-3.655C363.101,148.555,364.536,150.094,364.536,152.21z M357.885,152.21
			c0,2.041,1.357,3.517,3.239,3.517c1.88,0,3.237-1.476,3.237-3.517c0-2.04-1.357-3.516-3.237-3.516
			C359.243,148.695,357.885,150.17,357.885,152.21z"/>
		<path fill="none" stroke="#666666" d="M314.75,169.39v3.384l0.111,0.661c0.098,0.585,0.23,0.829,0.425,0.836l0.746-0.07
			l0.014,0.14l-0.758,0.104h-0.007c-0.34,0-0.502-0.418-0.591-0.982c-0.035-0.216-0.112-0.627-0.112-0.683v-0.154
			c0-0.125-0.021-0.188-0.049-0.188c-0.028,0-0.062,0.049-0.104,0.147c-0.48,1.031-1.518,1.86-2.771,1.86
			c-1.574,0-2.717-0.773-2.717-1.846c0-1.336,1.289-1.803,2.709-1.95c0.864-0.09,2.638-0.153,2.897-0.996
			c0.021-0.076,0.035-0.153,0.035-0.223v-0.041c-0.007-1.219-0.864-2.116-2.096-2.116c-1.393,0-2.52,0.619-2.52,1.385
			c0,0.091-0.056,0.146-0.146,0.146s-0.146-0.056-0.146-0.146c0-0.843,1.252-1.524,2.792-1.524
			C313.789,167.133,314.75,168.08,314.75,169.39z M311.658,170.789c-1.406,0.146-2.549,0.593-2.549,1.811
			c0,0.989,1.065,1.707,2.542,1.707c1.65,0,2.924-1.519,2.924-2.995v-1.399C314.109,170.685,312.425,170.711,311.658,170.789z"/>
		<path fill="none" stroke="#666666" d="M318.445,177.647h0.523v0.105h-3.065v-0.105h0.279c0.954,0,1.044-0.181,1.044-0.382v-9.645
			c0-0.257-0.194-0.348-0.73-0.348h-0.174v-0.104h0.174l0.905-0.022v1.018c0.849-0.627,1.762-1.031,2.66-1.031
			c1.748,0,3.016,1.539,3.016,3.655s-1.296,3.655-3.085,3.655c-1.011,0-1.824-0.516-2.333-1.31c-0.07-0.111-0.14-0.195-0.188-0.195
			c-0.042,0-0.07,0.077-0.07,0.259v4.066C317.4,177.467,317.491,177.647,318.445,177.647z M317.4,172.258
			c0.376,1.218,1.33,2.047,2.589,2.047c1.685,0,2.912-1.476,2.912-3.517c0-2.04-1.191-3.516-2.842-3.516
			c-0.885,0-1.796,0.411-2.66,1.064L317.4,172.258L317.4,172.258z"/>
		<path fill="none" stroke="#666666" d="M325.83,177.647h0.522v0.105h-3.064v-0.105h0.278c0.955,0,1.044-0.181,1.044-0.382v-9.645
			c0-0.257-0.194-0.348-0.73-0.348h-0.174v-0.104h0.174l0.904-0.022v1.018c0.851-0.627,1.763-1.031,2.66-1.031
			c1.748,0,3.016,1.539,3.016,3.655s-1.296,3.655-3.085,3.655c-1.01,0-1.824-0.516-2.333-1.31c-0.069-0.111-0.139-0.195-0.188-0.195
			c-0.042,0-0.07,0.077-0.07,0.259v4.066C324.785,177.467,324.875,177.647,325.83,177.647z M324.785,172.258
			c0.376,1.218,1.332,2.047,2.591,2.047c1.685,0,2.911-1.476,2.911-3.517c0-2.04-1.19-3.516-2.842-3.516
			c-0.884,0-1.796,0.411-2.66,1.064V172.258z"/>
		<path fill="none" stroke="#666666" d="M333.653,174.306h0.244v0.104h-2.786v-0.104h0.279c0.954,0,1.044-0.182,1.044-0.383v-9.645
			c0-0.258-0.194-0.348-0.731-0.348h-0.313v-0.105h0.313l0.906-0.02v10.117C332.609,174.124,332.7,174.306,333.653,174.306z"/>
		<path fill="none" stroke="#666666" d="M337.136,174.306h0.244v0.104h-2.786v-0.104h0.279c0.954,0,1.044-0.182,1.044-0.383v-6.302
			c0-0.257-0.194-0.348-0.731-0.348h-0.174v-0.104h0.174l0.906-0.022v6.775C336.093,174.124,336.183,174.306,337.136,174.306z
			 M335.988,164.521c0.146,0,0.278,0.125,0.278,0.279c0,0.146-0.125,0.278-0.278,0.278c-0.146,0-0.279-0.125-0.279-0.278
			C335.709,164.655,335.834,164.521,335.988,164.521z"/>
		<path fill="none" stroke="#666666" d="M341.442,167.133c1.476,0,2.646,0.8,2.646,1.393c0,0.09-0.055,0.146-0.146,0.146
			c-0.09,0-0.146-0.056-0.146-0.146c0-0.668-1.19-1.253-2.375-1.253c-1.873,0-3.217,1.47-3.217,3.53
			c0,2.047,1.394,3.503,3.378,3.503c0.892,0,1.838-0.3,2.555-0.905l0.091,0.104c-0.746,0.634-1.727,0.941-2.646,0.941
			c-2.061,0-3.552-1.519-3.552-3.643C338.03,168.673,339.472,167.133,341.442,167.133z"/>
		<path fill="none" stroke="#666666" d="M350.881,169.39v3.384l0.111,0.661c0.098,0.585,0.229,0.829,0.425,0.836l0.745-0.07
			l0.015,0.14l-0.759,0.104h-0.007c-0.34,0-0.502-0.418-0.591-0.982c-0.035-0.216-0.111-0.627-0.111-0.683v-0.154
			c0-0.125-0.021-0.188-0.049-0.188c-0.028,0-0.062,0.049-0.104,0.147c-0.48,1.031-1.518,1.86-2.772,1.86
			c-1.573,0-2.716-0.773-2.716-1.846c0-1.336,1.288-1.803,2.709-1.95c0.864-0.09,2.638-0.153,2.897-0.996
			c0.021-0.076,0.035-0.153,0.035-0.223v-0.041c-0.007-1.219-0.864-2.116-2.096-2.116c-1.393,0-2.521,0.619-2.521,1.385
			c0,0.091-0.055,0.146-0.146,0.146c-0.09,0-0.146-0.056-0.146-0.146c0-0.843,1.253-1.524,2.793-1.524
			C349.92,167.133,350.881,168.08,350.881,169.39z M347.789,170.789c-1.406,0.146-2.548,0.593-2.548,1.811
			c0,0.989,1.065,1.707,2.542,1.707c1.65,0,2.925-1.519,2.925-2.995v-1.399C350.241,170.685,348.555,170.711,347.789,170.789z"/>
		<path fill="none" stroke="#666666" d="M352.32,167.308h0.627c0.605,0,0.696-0.119,0.696-0.857v-1.233h0.14v1.853
			c0,0.153,0.063,0.237,0.251,0.237h3.301v0.138h-3.301c-0.188,0-0.251,0.091-0.251,0.244v4.004c0,1.519,0.767,2.612,1.817,2.612
			c0.627,0,1.309-0.265,1.678-0.849l0.111,0.069c-0.396,0.634-1.128,0.92-1.789,0.92c-1.156,0-1.991-1.157-1.991-2.751v-4.004
			c0-0.153-0.062-0.244-0.251-0.244h-1.038V167.308L352.32,167.308z"/>
		<path fill="none" stroke="#666666" d="M360.714,174.306h0.243v0.104h-2.785v-0.104h0.278c0.955,0,1.045-0.182,1.045-0.383v-6.302
			c0-0.257-0.195-0.348-0.731-0.348h-0.174v-0.104h0.174l0.905-0.022v6.775C359.668,174.124,359.759,174.306,360.714,174.306z
			 M359.564,164.521c0.146,0,0.279,0.125,0.279,0.279c0,0.146-0.126,0.278-0.279,0.278c-0.146,0-0.278-0.125-0.278-0.278
			C359.286,164.655,359.412,164.521,359.564,164.521z"/>
		<path fill="none" stroke="#666666" d="M368.431,170.789c0,2.117-1.435,3.655-3.411,3.655c-1.978,0-3.412-1.538-3.412-3.655
			c0-2.116,1.435-3.655,3.412-3.655C366.997,167.134,368.431,168.673,368.431,170.789z M361.781,170.789
			c0,2.041,1.357,3.517,3.239,3.517c1.88,0,3.238-1.476,3.238-3.517c0-2.04-1.358-3.516-3.238-3.516
			C363.138,167.273,361.781,168.749,361.781,170.789z"/>
		<path fill="none" stroke="#666666" d="M369.828,167.169l0.906-0.022v2.451c0,0.118,0.014,0.216,0.049,0.216
			c0.027,0,0.062-0.049,0.111-0.173c0.55-1.407,1.775-2.507,3.077-2.507c1.49,0,2.298,0.683,2.298,1.95v4.84
			c0,0.202,0.09,0.383,1.044,0.383h0.278v0.104h-2.925v-0.104h0.383c0.954,0,1.044-0.182,1.044-0.383v-4.817
			c0-1.178-0.717-1.812-2.123-1.812c-1.644,0-3.237,1.88-3.237,3.899v2.73c0,0.202,0.09,0.383,1.044,0.383h0.383v0.104h-2.925
			v-0.104h0.278c0.955,0,1.045-0.182,1.045-0.383v-6.302c0-0.257-0.195-0.348-0.731-0.348h-0.174v-0.104H369.828L369.828,167.169z"
			/>
	</g>
	<g>
		<g enable-background="new    ">
			<path fill="none" stroke="#666666" d="M325.396,244.083c0.139,0.113,0.216,0.209,0.271,0.209c0.077,0,0.104-0.104,0.104-0.319
				c0-0.035-0.007-0.167-0.021-0.556h0.112l0.077,2.089c0,0.027-0.021,0.049-0.056,0.049c-0.035,0-0.056-0.022-0.056-0.049
				l-0.007-0.056c-0.07-0.529-0.181-0.989-0.508-1.253c-0.697-0.571-1.511-0.676-2.103-0.676c-1.33,0-2.298,0.654-2.298,1.56
				c0,0.836,1.288,1.135,2.625,1.524c1.427,0.418,2.91,0.94,2.91,2.354c0,1.001-1.274,1.734-3.028,1.734
				c-1.003,0-1.664-0.175-2.416-0.815c-0.181-0.167-0.342-0.319-0.438-0.319c-0.091,0-0.133,0.119-0.146,0.446l-0.028,0.654h-0.105
				l0.084-2.298h0.104v0.076c0,0.55,0.251,1.017,0.648,1.344c0.718,0.585,1.315,0.773,2.298,0.773c1.657,0,2.854-0.669,2.854-1.595
				c0-1.295-1.42-1.768-2.828-2.179c-1.364-0.397-2.709-0.731-2.709-1.701c0-0.989,1.037-1.698,2.471-1.698
				C323.814,243.379,324.65,243.484,325.396,244.083z"/>
			<path fill="none" stroke="#666666" d="M334.145,247.036c0,2.117-1.434,3.655-3.412,3.655c-1.977,0-3.412-1.538-3.412-3.655
				c0-2.117,1.435-3.655,3.412-3.655C332.711,243.38,334.145,244.919,334.145,247.036z M327.495,247.036
				c0,2.041,1.358,3.517,3.239,3.517c1.881,0,3.238-1.476,3.238-3.517c0-2.04-1.357-3.516-3.238-3.516
				C328.853,243.52,327.495,244.996,327.495,247.036z"/>
			<path fill="none" stroke="#666666" d="M338.591,243.379c1.476,0,2.646,0.8,2.646,1.392c0,0.09-0.056,0.146-0.146,0.146
				c-0.09,0-0.146-0.056-0.146-0.146c0-0.667-1.19-1.253-2.374-1.253c-1.873,0-3.218,1.47-3.218,3.53
				c0,2.047,1.394,3.503,3.378,3.503c0.892,0,1.838-0.3,2.556-0.905l0.09,0.105c-0.746,0.634-1.726,0.941-2.646,0.941
				c-2.061,0-3.552-1.519-3.552-3.643C335.178,244.919,336.621,243.379,338.591,243.379z"/>
			<path fill="none" stroke="#666666" d="M342.703,240.072l0.906-0.02v6.705h1.162c0.153,0,0.376-0.14,0.474-0.258l1.999-2.527
				c0.118-0.146,0.146-0.23,0.146-0.279c0-0.124-0.216-0.173-0.535-0.173h-0.718v-0.104h2.653v0.104
				c-0.391,0-1.024,0.014-1.435,0.537l-2.187,2.772l2.229,2.833c0.446,0.563,0.8,0.884,1.113,0.884c0.265,0,0.397-0.09,0.6-0.25
				c0.027-0.022,0.069-0.035,0.098-0.035c0.069,0,0.133,0.056,0.133,0.132c0,0.042-0.021,0.082-0.063,0.112
				c-0.188,0.146-0.432,0.257-0.676,0.257c-0.516,0-0.8-0.313-1.351-1.016l-2.04-2.597c-0.076-0.104-0.286-0.251-0.438-0.251h-1.163
				v3.273c0,0.202,0.091,0.383,1.044,0.383h0.244v0.104h-2.785v-0.104h0.278c0.955,0,1.045-0.182,1.045-0.383v-9.645
				c0-0.258-0.195-0.348-0.732-0.348h-0.313v-0.105L342.703,240.072L342.703,240.072z"/>
			<path fill="none" stroke="#666666" d="M349.928,247.036c0,2.033,1.303,3.517,3.169,3.517c1.573,0,2.535-0.684,3.057-1.61
				l0.126,0.071c-0.543,0.967-1.566,1.678-3.183,1.678c-1.957,0-3.342-1.561-3.342-3.656v-0.146
				c0.062-2.055,1.489-3.509,3.411-3.509c1.991,0,3.272,1.497,3.272,3.517c0,0.048-0.042,0.069-0.07,0.069h-6.44V247.036z
				 M356.223,246.353c0-0.075-0.007-0.146-0.021-0.208c-0.271-1.553-1.379-2.626-3.036-2.626c-1.755,0-3.146,1.294-3.23,3.309h5.975
				C356.152,246.827,356.223,246.583,356.223,246.353z"/>
			<path fill="none" stroke="#666666" d="M357.048,243.554h0.627c0.605,0,0.697-0.119,0.697-0.856v-1.233h0.139v1.854
				c0,0.153,0.062,0.236,0.251,0.236h3.301v0.139h-3.301c-0.188,0-0.251,0.091-0.251,0.244v4.004c0,1.519,0.767,2.612,1.817,2.612
				c0.627,0,1.309-0.265,1.678-0.849l0.112,0.07c-0.397,0.634-1.129,0.92-1.79,0.92c-1.156,0-1.991-1.157-1.991-2.751v-4.004
				c0-0.153-0.062-0.244-0.251-0.244h-1.038V243.554L357.048,243.554z"/>
		</g>
		<g enable-background="new    ">
			<path fill="none" stroke="#666666" d="M326.505,260.339c0.139,0.113,0.215,0.209,0.271,0.209c0.077,0,0.104-0.104,0.104-0.319
				c0-0.035-0.007-0.167-0.021-0.556h0.111l0.077,2.089c0,0.027-0.021,0.049-0.056,0.049c-0.035,0-0.056-0.022-0.056-0.049
				l-0.006-0.056c-0.07-0.529-0.181-0.989-0.509-1.253c-0.697-0.571-1.51-0.676-2.103-0.676c-1.33,0-2.298,0.654-2.298,1.559
				c0,0.836,1.288,1.136,2.625,1.524c1.427,0.418,2.91,0.941,2.91,2.354c0,1.002-1.274,1.733-3.028,1.733
				c-1.004,0-1.664-0.175-2.417-0.815c-0.182-0.167-0.341-0.318-0.438-0.318c-0.09,0-0.132,0.117-0.146,0.445l-0.028,0.653h-0.105
				l0.084-2.298h0.104v0.076c0,0.55,0.25,1.017,0.648,1.343c0.717,0.586,1.315,0.773,2.298,0.773c1.657,0,2.854-0.669,2.854-1.594
				c0-1.295-1.42-1.768-2.827-2.179c-1.364-0.397-2.709-0.732-2.709-1.7c0-0.99,1.037-1.699,2.471-1.699
				C324.923,259.636,325.759,259.74,326.505,260.339z"/>
			<path fill="none" stroke="#666666" d="M328.604,263.292c0,2.033,1.303,3.516,3.169,3.516c1.573,0,2.535-0.683,3.058-1.609
				l0.125,0.071c-0.543,0.967-1.566,1.678-3.183,1.678c-1.957,0-3.342-1.561-3.342-3.656v-0.146c0.063-2.055,1.49-3.509,3.412-3.509
				c1.991,0,3.272,1.497,3.272,3.516c0,0.049-0.042,0.07-0.069,0.07h-6.441V263.292z M334.898,262.609
				c0-0.076-0.007-0.146-0.021-0.208c-0.272-1.553-1.379-2.626-3.037-2.626c-1.754,0-3.147,1.294-3.23,3.309h5.974
				C334.829,263.083,334.898,262.839,334.898,262.609z"/>
			<path fill="none" stroke="#666666" d="M340.841,260.848c-0.104,0-0.174-0.071-0.174-0.168c0-0.536-0.223-0.904-0.808-0.904
				c-1.399,0-2.443,1.532-2.443,3.272v3.377c0,0.201,0.09,0.383,1.044,0.383h0.383v0.104h-2.925v-0.104h0.278
				c0.955,0,1.045-0.182,1.045-0.383v-6.302c0-0.257-0.195-0.348-0.731-0.348h-0.174v-0.104h0.174l0.905-0.022v2.298
				c0.334-1.295,1.253-2.312,2.443-2.312c0.648,0,1.157,0.425,1.157,1.044C341.016,260.778,340.946,260.848,340.841,260.848z"/>
			<path fill="none" stroke="#666666" d="M349.57,259.672v0.104h-0.077c-0.578,0-0.877,0.146-1.031,0.514l-2.792,6.644h-0.188
				l-2.709-6.217c-0.313-0.718-0.417-0.822-0.871-0.822c-0.097,0-0.202,0.015-0.328,0.056c-0.013,0.008-0.034,0.015-0.048,0.015
				c-0.083,0-0.132-0.042-0.132-0.132c0-0.181,0.34-0.195,0.473-0.195c0.614,0,0.725,0.265,1.065,1.038l2.494,5.683
				c0.062,0.146,0.118,0.216,0.167,0.216c0.049,0,0.098-0.069,0.161-0.216l2.584-6.107c0.042-0.09,0.062-0.161,0.062-0.223
				c0-0.223-0.3-0.25-1.045-0.25h-0.557v-0.104h2.773V259.672z"/>
			<path fill="none" stroke="#666666" d="M349.826,263.292c0,2.033,1.302,3.516,3.168,3.516c1.574,0,2.535-0.683,3.058-1.609
				l0.125,0.071c-0.543,0.967-1.566,1.678-3.183,1.678c-1.956,0-3.342-1.561-3.342-3.656v-0.146c0.062-2.055,1.49-3.509,3.411-3.509
				c1.992,0,3.272,1.497,3.272,3.516c0,0.049-0.042,0.07-0.069,0.07h-6.44V263.292z M356.12,262.609
				c0-0.076-0.007-0.146-0.021-0.208c-0.271-1.553-1.38-2.626-3.037-2.626c-1.754,0-3.146,1.294-3.23,3.309h5.975
				C356.051,263.083,356.12,262.839,356.12,262.609z"/>
			<path fill="none" stroke="#666666" d="M362.064,260.848c-0.104,0-0.175-0.071-0.175-0.168c0-0.536-0.223-0.904-0.808-0.904
				c-1.399,0-2.443,1.532-2.443,3.272v3.377c0,0.201,0.091,0.383,1.044,0.383h0.383v0.104h-2.925v-0.104h0.278
				c0.955,0,1.046-0.182,1.046-0.383v-6.302c0-0.257-0.195-0.348-0.732-0.348h-0.174v-0.104h0.174l0.906-0.022v2.298
				c0.335-1.295,1.253-2.312,2.443-2.312c0.647,0,1.156,0.425,1.156,1.044C362.238,260.778,362.169,260.848,362.064,260.848z"/>
		</g>
	</g>
	<g>
		<path fill="none" stroke="#666666" d="M516.986,160.475c2.305,0,3.97,1.288,3.97,3.064c0,1.671-1.47,2.911-3.559,3.05
			c1.094,0.277,1.574,1.038,2.048,2.34c0.314,0.871,0.717,1.998,1.555,1.998c0.264,0,0.381-0.089,0.584-0.25
			c0.027-0.021,0.069-0.034,0.098-0.034c0.041,0,0.083,0.021,0.112,0.063c0.021,0.027,0.034,0.063,0.034,0.091
			c0,0.042-0.021,0.083-0.063,0.111c-0.237,0.181-0.452,0.258-0.801,0.258c-0.982,0-1.35-1.373-1.648-2.194
			c-0.607-1.677-1.179-2.368-3.093-2.368h-1.812v3.97c0,0.202,0.091,0.383,1.045,0.383h0.243v0.104h-2.785v-0.104h0.279
			c0.953,0,1.044-0.181,1.044-0.383v-9.645c0-0.216-0.126-0.349-1.044-0.349h-0.279v-0.104L516.986,160.475L516.986,160.475z
			 M514.41,166.463h1.812h0.745c2.221,0,3.815-1.226,3.815-2.925c0-1.699-1.595-2.925-3.815-2.925h-2.556L514.41,166.463
			L514.41,166.463z"/>
		<path fill="none" stroke="#666666" d="M522.59,167.439c0,2.033,1.302,3.516,3.17,3.516c1.572,0,2.534-0.683,3.057-1.609
			l0.125,0.071c-0.544,0.967-1.568,1.678-3.182,1.678c-1.959,0-3.343-1.561-3.343-3.655v-0.146c0.063-2.055,1.488-3.509,3.41-3.509
			c1.992,0,3.273,1.497,3.273,3.516c0,0.049-0.043,0.07-0.07,0.07h-6.441L522.59,167.439L522.59,167.439z M528.885,166.756
			c0-0.076-0.008-0.146-0.021-0.209c-0.271-1.552-1.379-2.625-3.036-2.625c-1.754,0-3.146,1.294-3.23,3.308h5.975
			C528.815,167.229,528.885,166.986,528.885,166.756z"/>
		<path fill="none" stroke="#666666" d="M535.984,169.326l0.063,0.697c0.048,0.514,0.244,0.94,0.452,0.946l0.676-0.124l0.026,0.138
			l-0.683,0.113h-0.014c-0.362,0-0.585-0.543-0.633-1.059l-0.028-0.313c-0.015-0.118-0.034-0.188-0.074-0.188
			c-0.044,0-0.084,0.049-0.141,0.146c-0.503,0.855-1.357,1.414-2.409,1.414c-1.789,0-3.084-1.538-3.084-3.655
			s1.268-3.655,3.015-3.655c0.897,0,1.816,0.404,2.66,1.031v-3.887c0-0.258-0.194-0.349-0.729-0.349h-0.315v-0.104h0.315
			l0.903-0.021L535.984,169.326L535.984,169.326z M535.81,164.988c-0.863-0.661-1.775-1.065-2.66-1.065
			c-1.651,0-2.841,1.476-2.841,3.516c0,2.04,1.226,3.516,2.911,3.516c1.261,0,2.214-0.843,2.59-2.061V164.988z"/>
		<path fill="none" stroke="#666666" d="M540.41,170.955h0.244v0.105h-2.785v-0.105h0.277c0.954,0,1.044-0.181,1.044-0.383v-6.301
			c0-0.258-0.195-0.349-0.73-0.349h-0.174v-0.104h0.174l0.904-0.022v6.775C539.366,170.774,539.456,170.955,540.41,170.955z
			 M539.262,161.172c0.145,0,0.278,0.125,0.278,0.278c0,0.146-0.125,0.279-0.278,0.279c-0.147,0-0.279-0.125-0.279-0.279
			C538.982,161.304,539.107,161.172,539.262,161.172z"/>
		<path fill="none" stroke="#666666" d="M546.567,164.486c0.14,0.112,0.216,0.209,0.27,0.209c0.077,0,0.105-0.104,0.105-0.319
			c0-0.035-0.006-0.167-0.021-0.556h0.112l0.076,2.089c0,0.026-0.021,0.048-0.057,0.048c-0.034,0-0.055-0.022-0.055-0.048
			l-0.007-0.056c-0.071-0.53-0.181-0.99-0.509-1.252c-0.696-0.572-1.512-0.676-2.104-0.676c-1.33,0-2.299,0.654-2.299,1.56
			c0,0.836,1.288,1.135,2.627,1.524c1.428,0.418,2.91,0.94,2.91,2.354c0,1.002-1.275,1.734-3.028,1.734
			c-1.004,0-1.664-0.174-2.417-0.815c-0.181-0.167-0.341-0.319-0.438-0.319c-0.091,0-0.134,0.119-0.147,0.446l-0.027,0.654h-0.104
			l0.084-2.298h0.104v0.075c0,0.55,0.25,1.017,0.647,1.343c0.717,0.586,1.317,0.773,2.298,0.773c1.656,0,2.854-0.668,2.854-1.594
			c0-1.294-1.42-1.769-2.826-2.18c-1.366-0.397-2.709-0.731-2.709-1.7c0-0.989,1.037-1.699,2.471-1.699
			C544.986,163.784,545.822,163.887,546.567,164.486z"/>
	</g>
</g>
</svg>
